<svg xmlns="http://www.w3.org/2000/svg" viewBox="0 0 1440 320">
  <path fill="#273036" fill-opacity="1" d="M0,64L26.7,90.7C53.3,117,107,171,160,197.3C213.3,224,267,224,320,208C373.3,192,427,160,480,170.7C533.3,181,587,235,640,261.3C693.3,288,747,288,800,261.3C853.3,235,907,181,960,133.3C1013.3,85,1067,43,1120,58.7C1173.3,75,1227,149,1280,165.3C1333.3,181,1387,139,1413,117.3L1440,96L1440,320L1413.3,320C1386.7,320,1333,320,1280,320C1226.7,320,1173,320,1120,320C1066.7,320,1013,320,960,320C906.7,320,853,320,800,320C746.7,320,693,320,640,320C586.7,320,533,320,480,320C426.7,320,373,320,320,320C266.7,320,213,320,160,320C106.7,320,53,320,27,320L0,320Z"></path>
</svg>